<svg width="128" height="128" viewBox="0 0 128 128" fill="none" xmlns="http://www.w3.org/2000/svg">
  <circle cx="64" cy="64" r="60" fill="white" stroke="#FFA500" stroke-width="8"/>
  <path d="M24 64C24 41.909 41.909 24 64 24C86.091 24 104 41.909 104 64" stroke="#FFA500" stroke-width="8"/>
  <path fill-rule="evenodd" clip-rule="evenodd" d="M64 34C62.3431 34 61 35.3431 61 37V71C61 72.6569 62.3431 74 64 74C65.6569 74 67 72.6569 67 71V37C67 35.3431 65.6569 34 64 34Z" fill="#FFA500"/>
  <path d="M44 54L84 54" stroke="#FFA500" stroke-width="8" stroke-linecap="round"/>
  <path fill-rule="evenodd" clip-rule="evenodd" d="M34 64C34 47.4315 47.4315 34 64 34C80.5685 34 94 47.4315 94 64H34Z" fill="#FFA500" fill-opacity="0.1"/>
</svg>

