<svg width="192" height="192" viewBox="0 0 192 192" fill="none" xmlns="http://www.w3.org/2000/svg">
  <circle cx="96" cy="96" r="96" fill="url(#gradient)" />
  <path d="M96 48C78.3 48 64 62.3 64 80C64 97.7 78.3 112 96 112C113.7 112 128 97.7 128 80C128 62.3 113.7 48 96 48ZM96 104C82.7 104 72 93.3 72 80C72 66.7 82.7 56 96 56C109.3 56 120 66.7 120 80C120 93.3 109.3 104 96 104Z" fill="white"/>
  <path d="M96 64C87.2 64 80 71.2 80 80C80 88.8 87.2 96 96 96C104.8 96 112 88.8 112 80C112 71.2 104.8 64 96 64ZM96 88C91.6 88 88 84.4 88 80C88 75.6 91.6 72 96 72C100.4 72 104 75.6 104 80C104 84.4 100.4 88 96 88Z" fill="white"/>
  <defs>
    <linearGradient id="gradient" x1="0" y1="0" x2="192" y2="192" gradientUnits="userSpaceOnUse">
      <stop offset="0%" stop-color="#00f5d4" />
      <stop offset="50%" stop-color="#f15bb5" />
      <stop offset="100%" stop-color="#9b5de5" />
    </linearGradient>
  </defs>
</svg>

